<svg xmlns="http://www.w3.org/2000/svg" version="1.1" xmlns:xlink="http://www.w3.org/1999/xlink" xmlns:svgjs="http://svgjs.dev/svgjs" width="2000" height="1247" viewBox="0 0 2000 1247"><g transform="matrix(1,0,0,1,-1.2121212121212466,0.5048582995952984)"><svg viewBox="0 0 396 247" data-background-color="#f9f9f9" preserveAspectRatio="xMidYMid meet" height="1247" width="2000" xmlns="http://www.w3.org/2000/svg" xmlns:xlink="http://www.w3.org/1999/xlink"><g id="tight-bounds" transform="matrix(1,0,0,1,0.2400000000000091,-0.09999999999999432)"><svg viewBox="0 0 395.52 247.2" height="247.2" width="395.52"><g><svg></svg></g><g><svg viewBox="0 0 395.52 247.2" height="247.2" width="395.52"><mask id="9b502dfd-6274-4487-a7e1-d498ac786369"><rect width="395.52" height="247.2" fill="white"></rect><g transform="matrix(1,0,0,1,62.15222797927461,37.08)" id="clone"><svg viewBox="0 0 271.21554404145076 173.04" height="173.04" width="271.21554404145076"><g><svg viewBox="0 0 271.21554404145076 173.04" height="173.04" width="271.21554404145076"><g><svg viewBox="0 0 271.21554404145076 173.04" height="173.04" width="271.21554404145076"><g><svg viewBox="0 0 271.21554404145076 173.04" height="173.04" width="271.21554404145076"><g id="SvgjsG1326"><svg viewBox="0 0 271.21554404145076 173.04" height="173.04" width="271.21554404145076" id="SvgjsSvg1325"><g><svg viewBox="0 0 271.21554404145076 173.04" height="173.04" width="271.21554404145076"><g transform="matrix(1,0,0,1,0,0)"><svg width="271.21554404145076" viewBox="-2 -41.45 91.74 58.900000000000006" height="173.04" data-palette-color="#1e1e2e"><path d="M22.1-19.9L22.1-19.9Q22.05-18.95 21.78-17.93 21.5-16.9 21.1-16.07 20.7-15.25 20.25-14.7 19.8-14.15 19.4-14.15L19.4-14.15Q18.85-14.2 18.75-14.9L18.75-14.9Q18.75-15.05 18.88-15.38 19-15.7 19.15-16.1 19.3-16.5 19.43-16.9 19.55-17.3 19.55-17.6L19.55-17.6Q19.55-18.3 19.23-18.78 18.9-19.25 18.35-19.25L18.35-19.25Q16.35-19.25 15.3-16.75 14.25-14.25 14.25-9.4L14.25-9.4Q14.25-8.9 14.3-8.8L14.3-8.8Q15.35-8.85 16.18-8.88 17-8.9 17.8-8.9L17.8-8.9Q17.85-8.8 17.85-8.5L17.85-8.5Q17.85-8.05 17.65-7.85L17.65-7.85Q16.5-7.6 15.83-7.43 15.15-7.25 14.8-7.1 14.45-6.95 14.38-6.78 14.3-6.6 14.3-6.3L14.3-6.3Q14.3-5.9 14.33-5.5 14.35-5.1 14.35-4.5L14.35-4.5Q14.35-0.3 12.08 2.25 9.8 4.8 5.75 5.2L5.75 5.2Q5.05 5.15 4.3 4.8 3.55 4.45 2.88 3.9 2.2 3.35 1.7 2.68 1.2 2 1 1.3L1 1.3Q1-0.6 1.8-2.33 2.6-4.05 3.98-5.38 5.35-6.7 7.23-7.53 9.1-8.35 11.3-8.5L11.3-8.5Q11.3-9.75 11.05-10.95 10.8-12.15 10.53-13.28 10.25-14.4 10-15.48 9.75-16.55 9.75-17.6L9.75-17.6Q9.75-18.95 10.3-20.28 10.85-21.6 11.75-22.73 12.65-23.85 13.85-24.65 15.05-25.45 16.35-25.75L16.35-25.75Q16.9-25.6 17.82-24.88 18.75-24.15 19.65-23.25 20.55-22.35 21.25-21.43 21.95-20.5 22.1-19.9ZM5.6 2.9L5.6 2.9Q6.8 2.4 7.88 1.45 8.95 0.5 9.75-0.7 10.55-1.9 11.03-3.25 11.5-4.6 11.5-5.9L11.5-5.9Q10.5-5.75 9.3-4.98 8.1-4.2 7.05-3.13 6-2.05 5.3-0.9 4.6 0.25 4.6 1.1L4.6 1.1Q4.6 2.2 5.6 2.9ZM27.95-19.15L25.1-19.15Q24.85-19.45 24.65-20.43 24.45-21.4 24.45-22.1L24.45-22.1Q25.75-22 26.95-21.93 28.15-21.85 29.15-21.8L29.15-21.8Q29.9-23.3 30.77-24.78 31.65-26.25 32.47-27.48 33.3-28.7 34.02-29.55 34.75-30.4 35.15-30.65L35.15-30.65Q35.65-30.65 36.42-30.48 37.2-30.3 38-30.03 38.8-29.75 39.45-29.45 40.1-29.15 40.35-28.85L40.35-28.85Q38.85-26.95 37.77-25.33 36.7-23.7 35.45-21.6L35.45-21.6Q36.45-21.6 37.47-21.65 38.5-21.7 39.55-21.8L39.55-21.8Q39.8-21.55 39.95-21.18 40.1-20.8 40.1-20.4L40.1-20.4Q37.65-19.5 34.15-19.4L34.15-19.4Q32.9-17 31.92-14.63 30.95-12.25 30.27-10.05 29.6-7.85 29.22-5.9 28.85-3.95 28.85-2.4L28.85-2.4Q28.85-0.2 30.5 0.05L30.5 0.05Q32-0.15 33.35-0.7 34.7-1.25 35.75-2.1L35.75-2.1Q36.05-1.65 36.1-1.35L36.1-1.35Q35.8-0.9 35.07-0.3 34.35 0.3 33.5 0.88 32.65 1.45 31.85 1.85 31.05 2.25 30.65 2.3L30.65 2.3Q29.4 2.25 28.15 1.75 26.9 1.25 25.87 0.5 24.85-0.25 24.2-1.18 23.55-2.1 23.55-3L23.55-3Q23.55-4.2 23.87-6.03 24.2-7.85 24.8-10 25.4-12.15 26.2-14.5 27-16.85 27.95-19.15L27.95-19.15ZM57.65-20.7L57.65-20.7Q57.45-17.6 56.55-15.38 55.65-13.15 53.97-11.48 52.3-9.8 49.9-8.45 47.5-7.1 44.3-5.85L44.3-5.85Q44.3-5.55 44.27-5.23 44.25-4.9 44.25-4.55L44.25-4.55Q44.25-3.9 44.35-3.2 44.45-2.5 44.7-1.9 44.95-1.3 45.4-0.93 45.85-0.55 46.55-0.55L46.55-0.55Q47.9-0.55 49.2-1.15 50.5-1.75 51.67-2.63 52.84-3.5 53.87-4.53 54.9-5.55 55.7-6.4L55.7-6.4Q56.2-5.95 56.55-5.55L56.55-5.55Q54.3-2.55 51.62-0.58 48.95 1.4 46.55 1.95L46.55 1.95Q43.1 1.55 41.17-0.58 39.25-2.7 39.25-5.7L39.25-5.7Q39.25-7.75 39.82-9.88 40.4-12 41.42-13.98 42.45-15.95 43.82-17.7 45.2-19.45 46.77-20.75 48.35-22.05 50.02-22.8 51.7-23.55 53.34-23.55L53.34-23.55Q55.65-23.25 57.65-20.7ZM54.2-19.05L54.2-19.05Q52.84-18.85 51.4-17.95 49.95-17.05 48.67-15.55 47.4-14.05 46.35-12.05 45.3-10.05 44.7-7.75L44.7-7.75Q48.7-9.75 51.34-12.68 54-15.6 54.2-19.05ZM62.29 14.45L62.29 14.45Q61.04 13.95 60.79 12.55L60.79 12.55Q60.59 11.2 59.09 10.35L59.09 10.35Q59.49 7.8 59.99 5.2 60.49 2.6 61.27-0.73 62.04-4.05 63.22-8.47 64.39-12.9 66.19-19.2L66.19-19.2Q64.54-19.2 63.59-19.15 62.64-19.1 61.74-18.95L61.74-18.95Q61.54-19.15 61.42-19.5 61.29-19.85 61.29-20.15L61.29-20.15Q61.79-20.35 63.34-20.68 64.89-21 66.74-21.25L66.74-21.25Q67.94-25.05 69.49-28.08 71.04-31.1 72.84-33.25 74.64-35.4 76.64-36.55 78.64-37.7 80.69-37.7L80.69-37.7Q81.29-37.7 81.84-37.63 82.39-37.55 82.69-37.55L82.69-37.55Q83.14-37.9 83.89-38.18 84.64-38.45 85.19-38.45L85.19-38.45Q85.79-38.45 86.74-37.8L86.74-37.8Q86.34-37.1 85.89-35.9 85.44-34.7 85.14-33.55L85.14-33.55Q83.89-29.85 82.49-28.75L82.49-28.75Q81.94-28.75 81.89-30.2L81.89-30.2Q81.84-31.25 81.59-32.25L81.59-32.25Q81.39-32.7 81.32-33.05 81.24-33.4 81.24-33.95L81.24-33.95Q81.24-34.25 81.29-34.68 81.34-35.1 81.49-36.1L81.49-36.1Q80.64-36.1 79.62-35.05 78.59-34 77.47-32.08 76.34-30.15 75.19-27.5 74.04-24.85 72.99-21.65L72.99-21.65 77.19-21.8Q77.44-21.55 77.62-20.68 77.79-19.8 77.84-18.85L77.84-18.85 72.34-19.15Q70.44-13.5 68.79-8.35 67.14-3.2 65.84 1.15 64.54 5.5 63.62 8.93 62.69 12.35 62.29 14.45Z" opacity="1" transform="matrix(1,0,0,1,0,0)" fill="black" class="wordmark-text-0" id="SvgjsPath1324" stroke-width="5" stroke="black" stroke-linejoin="round"></path></svg></g></svg></g></svg></g></svg></g><g></g></svg></g></svg></g></svg></g></mask><g mask="url(#9b502dfd-6274-4487-a7e1-d498ac786369)"><g><path d="M295.85 19.436v0c0.607 3.442 1.073 5.831 1.397 7.167 0.283 1.296 0.425 3.057 0.426 5.284v0c0 6.681-1.458 12.897-4.374 18.646-2.956 5.79-6.965 9.9-12.025 12.33v0c-4.049-5.466-9.009-10.184-14.881-14.152-5.871-3.928-12.289-7.167-19.254-9.718-7.005-2.51-14.253-4.373-21.744-5.588-7.491-1.215-14.779-1.822-21.865-1.822v0c-7.086 0-13.706 0.547-19.861 1.64-6.195 1.134-11.662 2.652-16.399 4.555-4.778 1.944-8.523 4.333-11.236 7.167-2.753 2.834-4.13 6.074-4.131 9.718v0c0.607 4.454 3.341 8.949 8.2 13.484 4.859 4.576 10.831 9.03 17.917 13.362 7.086 4.373 14.941 8.685 23.566 12.937 8.584 4.252 17.027 8.301 25.328 12.148v0c10.325 4.859 19.233 9.354 26.724 13.483 7.491 4.171 13.666 8.726 18.525 13.666 4.859 4.98 8.503 10.609 10.933 16.885 2.429 6.276 3.644 13.868 3.644 22.776v0c0 10.325-1.721 19.983-5.163 28.972-3.442 9.03-8.442 16.885-15.002 23.566-6.6 6.681-14.557 11.904-23.87 15.67-9.313 3.725-19.74 5.588-31.279 5.588v0c-11.338 0-23.586-1.721-36.746-5.163-13.16-3.442-25.449-8.139-36.868-14.091-11.459-5.993-20.975-12.897-28.546-20.711-7.612-7.774-11.419-16.014-11.419-24.72v0c0-4.049 1.174-9.212 3.523-15.488 2.308-6.276 6.499-12.856 12.573-19.74v0c0.607 6.074 3.907 13.261 9.9 21.562 5.952 8.301 14.901 15.994 26.846 23.08v0c11.135 6.479 22.635 11.176 34.498 14.091 11.823 2.956 22.898 4.434 33.224 4.434v0c11.338 0 20.549-1.417 27.635-4.252 7.086-2.834 12.654-6.236 16.703-10.203 4.049-3.928 6.884-7.916 8.503-11.966 1.62-4.049 2.531-7.288 2.733-9.718v0c-0.202-4.049-2.065-7.957-5.588-11.722-3.563-3.725-8.321-7.369-14.273-10.932-5.993-3.523-12.937-7.106-20.833-10.751-7.896-3.644-16.095-7.288-24.598-10.933v0c-12.755-5.669-23.728-10.993-32.92-15.973-9.232-4.94-16.824-10.001-22.776-15.185-5.993-5.142-10.346-10.548-13.059-16.217-2.753-5.669-4.13-12.147-4.13-19.435v0c0-11.338 3.442-22.068 10.325-32.191 6.884-10.123 16.804-17.816 29.762-23.08v0c6.479-2.834 13.423-4.859 20.832-6.074 7.369-1.215 14.597-1.822 21.684-1.822v0c13.362 0 26.421 1.822 39.175 5.466 12.755 3.644 25.51 8.301 38.264 13.97z" fill="#fdebf3" fill-rule="nonzero" stroke="none" stroke-width="1" stroke-linecap="butt" stroke-linejoin="miter" stroke-miterlimit="10" stroke-dasharray="" stroke-dashoffset="0" font-family="none" font-weight="none" font-size="none" text-anchor="none" style="mix-blend-mode: normal" data-fill-palette-color="tertiary"></path></g></g><g transform="matrix(1,0,0,1,62.15222797927461,37.08)"><svg viewBox="0 0 271.21554404145076 173.04" height="173.04" width="271.21554404145076"><g><svg viewBox="0 0 271.21554404145076 173.04" height="173.04" width="271.21554404145076"><g><svg viewBox="0 0 271.21554404145076 173.04" height="173.04" width="271.21554404145076"><g><svg viewBox="0 0 271.21554404145076 173.04" height="173.04" width="271.21554404145076"><g id="textblocktransform"><svg viewBox="0 0 271.21554404145076 173.04" height="173.04" width="271.21554404145076" id="textblock"><g><svg viewBox="0 0 271.21554404145076 173.04" height="173.04" width="271.21554404145076"><g transform="matrix(1,0,0,1,0,0)"><svg width="271.21554404145076" viewBox="-2 -41.45 91.74 58.900000000000006" height="173.04" data-palette-color="#1e1e2e"><path d="M22.1-19.9L22.1-19.9Q22.05-18.95 21.78-17.93 21.5-16.9 21.1-16.07 20.7-15.25 20.25-14.7 19.8-14.15 19.4-14.15L19.4-14.15Q18.85-14.2 18.75-14.9L18.75-14.9Q18.75-15.05 18.88-15.38 19-15.7 19.15-16.1 19.3-16.5 19.43-16.9 19.55-17.3 19.55-17.6L19.55-17.6Q19.55-18.3 19.23-18.78 18.9-19.25 18.35-19.25L18.35-19.25Q16.35-19.25 15.3-16.75 14.25-14.25 14.25-9.4L14.25-9.4Q14.25-8.9 14.3-8.8L14.3-8.8Q15.35-8.85 16.18-8.88 17-8.9 17.8-8.9L17.8-8.9Q17.85-8.8 17.85-8.5L17.85-8.5Q17.85-8.05 17.65-7.85L17.65-7.85Q16.5-7.6 15.83-7.43 15.15-7.25 14.8-7.1 14.45-6.95 14.38-6.78 14.3-6.6 14.3-6.3L14.3-6.3Q14.3-5.9 14.33-5.5 14.35-5.1 14.35-4.5L14.35-4.5Q14.35-0.3 12.08 2.25 9.8 4.8 5.75 5.2L5.75 5.2Q5.05 5.15 4.3 4.8 3.55 4.45 2.88 3.9 2.2 3.35 1.7 2.68 1.2 2 1 1.3L1 1.3Q1-0.6 1.8-2.33 2.6-4.05 3.98-5.38 5.35-6.7 7.23-7.53 9.1-8.35 11.3-8.5L11.3-8.5Q11.3-9.75 11.05-10.95 10.8-12.15 10.53-13.28 10.25-14.4 10-15.48 9.75-16.55 9.75-17.6L9.75-17.6Q9.75-18.95 10.3-20.28 10.85-21.6 11.75-22.73 12.65-23.85 13.85-24.65 15.05-25.45 16.35-25.75L16.35-25.75Q16.9-25.6 17.82-24.88 18.75-24.15 19.65-23.25 20.55-22.35 21.25-21.43 21.95-20.5 22.1-19.9ZM5.6 2.9L5.6 2.9Q6.8 2.4 7.88 1.45 8.95 0.5 9.75-0.7 10.55-1.9 11.03-3.25 11.5-4.6 11.5-5.9L11.5-5.9Q10.5-5.75 9.3-4.98 8.1-4.2 7.05-3.13 6-2.05 5.3-0.9 4.6 0.25 4.6 1.1L4.6 1.1Q4.6 2.2 5.6 2.9ZM27.95-19.15L25.1-19.15Q24.85-19.45 24.65-20.43 24.45-21.4 24.45-22.1L24.45-22.1Q25.75-22 26.95-21.93 28.15-21.85 29.15-21.8L29.15-21.8Q29.9-23.3 30.77-24.78 31.65-26.25 32.47-27.48 33.3-28.7 34.02-29.55 34.75-30.4 35.15-30.65L35.15-30.65Q35.65-30.65 36.42-30.48 37.2-30.3 38-30.03 38.8-29.75 39.45-29.45 40.1-29.15 40.35-28.85L40.35-28.85Q38.85-26.95 37.77-25.33 36.7-23.7 35.45-21.6L35.45-21.6Q36.45-21.6 37.47-21.65 38.5-21.7 39.55-21.8L39.55-21.8Q39.8-21.55 39.95-21.18 40.1-20.8 40.1-20.4L40.1-20.4Q37.65-19.5 34.15-19.4L34.15-19.4Q32.9-17 31.92-14.63 30.95-12.25 30.27-10.05 29.6-7.85 29.22-5.9 28.85-3.95 28.85-2.4L28.85-2.4Q28.85-0.2 30.5 0.05L30.5 0.05Q32-0.15 33.35-0.7 34.7-1.25 35.75-2.1L35.75-2.1Q36.05-1.65 36.1-1.35L36.1-1.35Q35.8-0.9 35.07-0.3 34.35 0.3 33.5 0.88 32.65 1.45 31.85 1.85 31.05 2.25 30.65 2.3L30.65 2.3Q29.4 2.25 28.15 1.75 26.9 1.25 25.87 0.5 24.85-0.25 24.2-1.18 23.55-2.1 23.55-3L23.55-3Q23.55-4.2 23.87-6.03 24.2-7.85 24.8-10 25.4-12.15 26.2-14.5 27-16.85 27.95-19.15L27.95-19.15ZM57.65-20.7L57.65-20.7Q57.45-17.6 56.55-15.38 55.65-13.15 53.97-11.48 52.3-9.8 49.9-8.45 47.5-7.1 44.3-5.85L44.3-5.85Q44.3-5.55 44.27-5.23 44.25-4.9 44.25-4.55L44.25-4.55Q44.25-3.9 44.35-3.2 44.45-2.5 44.7-1.9 44.95-1.3 45.4-0.93 45.85-0.55 46.55-0.55L46.55-0.55Q47.9-0.55 49.2-1.15 50.5-1.75 51.67-2.63 52.84-3.5 53.87-4.53 54.9-5.55 55.7-6.4L55.7-6.4Q56.2-5.95 56.55-5.55L56.55-5.55Q54.3-2.55 51.62-0.58 48.95 1.4 46.55 1.95L46.55 1.95Q43.1 1.55 41.17-0.58 39.25-2.7 39.25-5.7L39.25-5.7Q39.25-7.75 39.82-9.88 40.4-12 41.42-13.98 42.45-15.95 43.82-17.7 45.2-19.45 46.77-20.75 48.35-22.05 50.02-22.8 51.7-23.55 53.34-23.55L53.34-23.55Q55.65-23.25 57.65-20.7ZM54.2-19.05L54.2-19.05Q52.84-18.85 51.4-17.95 49.95-17.05 48.67-15.55 47.4-14.05 46.35-12.05 45.3-10.05 44.7-7.75L44.7-7.75Q48.7-9.75 51.34-12.68 54-15.6 54.2-19.05ZM62.29 14.45L62.29 14.45Q61.04 13.95 60.79 12.55L60.79 12.55Q60.59 11.2 59.09 10.35L59.09 10.35Q59.49 7.8 59.99 5.2 60.49 2.6 61.27-0.73 62.04-4.05 63.22-8.47 64.39-12.9 66.19-19.2L66.19-19.2Q64.54-19.2 63.59-19.15 62.64-19.1 61.74-18.95L61.74-18.95Q61.54-19.15 61.42-19.5 61.29-19.85 61.29-20.15L61.29-20.15Q61.79-20.35 63.34-20.68 64.89-21 66.74-21.25L66.74-21.25Q67.94-25.05 69.49-28.08 71.04-31.1 72.84-33.25 74.64-35.4 76.64-36.55 78.64-37.7 80.69-37.7L80.69-37.7Q81.29-37.7 81.84-37.63 82.39-37.55 82.69-37.55L82.69-37.55Q83.14-37.9 83.89-38.18 84.64-38.45 85.19-38.45L85.19-38.45Q85.79-38.45 86.74-37.8L86.74-37.8Q86.34-37.1 85.89-35.9 85.44-34.7 85.14-33.55L85.14-33.55Q83.89-29.85 82.49-28.75L82.49-28.75Q81.94-28.75 81.89-30.2L81.89-30.2Q81.84-31.25 81.59-32.25L81.59-32.25Q81.39-32.7 81.32-33.05 81.24-33.4 81.24-33.95L81.24-33.95Q81.24-34.25 81.29-34.68 81.34-35.1 81.49-36.1L81.49-36.1Q80.64-36.1 79.62-35.05 78.59-34 77.47-32.08 76.34-30.15 75.19-27.5 74.04-24.85 72.99-21.65L72.99-21.65 77.19-21.8Q77.44-21.55 77.62-20.68 77.79-19.8 77.84-18.85L77.84-18.85 72.34-19.15Q70.44-13.5 68.79-8.35 67.14-3.2 65.84 1.15 64.54 5.5 63.62 8.93 62.69 12.35 62.29 14.45Z" opacity="1" transform="matrix(1,0,0,1,0,0)" fill="#fdebf3" class="wordmark-text-0" data-fill-palette-color="primary" id="text-0"></path></svg></g></svg></g></svg></g></svg></g><g></g></svg></g></svg></g></svg></g></svg></g><defs></defs></svg><rect width="395.52" height="247.2" fill="none" stroke="none" visibility="hidden"></rect></g></svg></g></svg>