<?xml version="1.0" standalone="no"?>
<!DOCTYPE svg PUBLIC "-//W3C//DTD SVG 20010904//EN"
 "http://www.w3.org/TR/2001/REC-SVG-20010904/DTD/svg10.dtd">
<svg version="1.0" xmlns="http://www.w3.org/2000/svg"
 width="880.000000pt" height="880.000000pt" viewBox="0 0 880.000000 880.000000"
 preserveAspectRatio="xMidYMid meet">
<metadata>
Created by potrace 1.14, written by Peter Selinger 2001-2017
</metadata>
<g transform="translate(0.000000,880.000000) scale(0.100000,-0.100000)"
fill="#000000" stroke="none">
<path d="M5739 8796 c-3 -3 -16 -8 -30 -10 -13 -2 -25 -5 -26 -7 -2 -1 -6 -2
-10 -3 -72 -17 -328 -114 -358 -136 -5 -4 -35 -21 -65 -37 -150 -81 -286 -172
-420 -281 -68 -56 -320 -308 -320 -320 0 -6 -4 -12 -9 -14 -5 -1 -32 -32 -60
-68 -28 -36 -55 -70 -61 -77 -8 -10 -98 -147 -159 -243 -67 -105 -231 -462
-231 -502 0 -4 -5 -19 -12 -35 -6 -15 -13 -37 -15 -48 -2 -11 -8 -38 -14 -60
-6 -22 -13 -49 -15 -60 -2 -11 -6 -31 -9 -45 -24 -120 -29 -180 -30 -360 0
-185 5 -274 21 -380 3 -19 7 -48 9 -65 2 -16 4 -30 5 -30 1 0 3 -9 5 -20 13
-71 45 -212 66 -290 6 -22 13 -51 15 -65 3 -14 7 -33 10 -42 7 -24 16 -70 17
-85 0 -7 4 -13 9 -13 5 0 7 -3 4 -8 -2 -4 2 -32 10 -62 8 -30 16 -65 18 -77 3
-13 9 -37 15 -55 10 -30 88 -366 96 -413 2 -11 10 -50 18 -86 9 -36 18 -80 20
-97 3 -17 7 -34 10 -39 3 -4 8 -26 11 -48 3 -22 13 -74 21 -115 15 -81 21
-116 30 -200 3 -30 8 -73 10 -95 3 -22 7 -100 10 -172 6 -152 15 -138 -100
-147 -90 -8 -150 -15 -181 -21 -16 -2 -49 -7 -74 -11 -25 -3 -53 -8 -62 -10
-10 -3 -29 -7 -43 -10 -25 -4 -52 -9 -102 -20 -114 -23 -388 -110 -518 -165
-109 -45 -308 -138 -315 -148 -3 -3 -34 -21 -70 -40 -98 -52 -197 -117 -324
-211 -293 -218 -530 -472 -717 -765 -35 -56 -70 -110 -77 -120 -7 -11 -17 -32
-23 -47 -6 -16 -15 -28 -20 -28 -5 0 -9 -5 -9 -11 0 -6 -22 -57 -49 -113 -142
-294 -221 -607 -237 -939 -7 -128 -3 -145 57 -275 16 -35 29 -65 29 -68 0 -3
8 -17 18 -32 10 -15 38 -56 62 -92 25 -36 48 -67 52 -68 4 -2 8 -8 8 -12 0
-11 72 -92 162 -181 137 -137 321 -271 483 -352 140 -71 169 -83 280 -113 105
-29 246 -37 325 -19 14 3 48 8 75 11 28 3 93 15 145 25 52 11 106 22 120 25
14 2 32 7 40 10 8 3 26 8 40 10 14 3 41 10 60 16 19 7 37 13 40 13 29 6 145
45 224 76 94 37 285 127 296 139 3 3 18 11 34 18 16 7 73 43 128 80 55 37 110
74 122 82 13 8 30 22 38 30 9 8 31 26 49 40 87 66 263 244 328 330 14 19 28
37 32 40 59 51 319 502 319 553 0 7 4 17 9 23 19 20 110 310 136 434 2 8 4 15
5 15 1 0 3 9 4 20 1 11 6 36 9 55 4 19 9 52 13 74 3 21 8 48 10 60 3 11 7 44
9 71 3 28 7 59 10 71 16 72 21 329 14 829 -2 194 -1 202 20 245 13 27 81 80
103 80 8 0 18 4 24 9 8 8 160 59 224 76 14 3 59 15 100 26 41 11 93 24 115 29
22 5 72 16 110 25 39 9 81 18 95 20 14 2 40 8 58 14 18 5 35 10 37 10 28 -1
66 17 78 35 31 47 48 173 33 241 -2 11 -5 23 -5 27 -1 11 -547 1 -892 -16
l-107 -6 -7 28 c-6 26 -7 402 0 547 6 137 17 331 20 365 3 19 7 68 9 109 3 41
8 91 10 110 3 20 8 59 11 86 10 91 16 129 37 250 11 66 22 134 25 152 4 26 55
238 67 278 1 6 8 30 15 55 18 67 71 219 94 270 11 25 21 47 22 50 0 3 11 26
23 52 12 26 22 50 22 53 0 6 52 90 91 147 11 15 19 30 19 33 0 3 8 13 18 24 9
10 31 35 47 56 112 143 289 253 460 288 80 17 190 23 232 13 65 -14 173 -86
173 -115 0 -6 4 -11 9 -11 13 0 58 -101 76 -172 21 -79 24 -190 9 -268 -12
-59 -61 -217 -87 -280 -5 -14 -11 -29 -13 -35 -1 -5 -25 -71 -54 -145 -28 -74
-54 -153 -57 -176 -11 -80 33 -175 100 -218 30 -20 102 -27 140 -14 70 24 167
116 245 233 26 39 49 72 52 75 9 7 71 121 115 210 20 41 43 86 50 100 7 14 32
77 55 140 38 102 47 130 66 190 6 20 64 240 70 265 3 11 6 34 8 50 2 17 6 41
9 55 6 25 12 62 24 155 4 28 7 82 7 120 1 65 -3 78 -52 175 -50 101 -154 260
-221 340 -9 10 -23 28 -31 40 -8 12 -26 34 -40 49 -14 14 -36 40 -48 56 -69
89 -327 357 -493 510 -244 226 -536 444 -670 499 -43 17 -93 28 -100 22z
m-1355 -5718 c-5 -110 -23 -257 -41 -343 -2 -11 -6 -31 -9 -45 -3 -14 -11 -45
-18 -70 -7 -25 -14 -48 -14 -53 -3 -17 -34 -123 -42 -142 -5 -11 -18 -47 -30
-80 -20 -55 -28 -74 -64 -160 -23 -53 -120 -250 -126 -255 -3 -3 -18 -31 -35
-62 -16 -32 -33 -58 -37 -58 -5 0 -8 -6 -8 -13 0 -16 -172 -272 -200 -297 -3
-3 -16 -20 -29 -38 -13 -19 -33 -43 -45 -56 -11 -12 -36 -39 -54 -61 -115
-139 -347 -350 -487 -445 -27 -19 -54 -38 -60 -43 -56 -46 -342 -197 -375
-197 -19 0 -171 141 -184 170 -3 8 -15 29 -26 45 -11 17 -22 37 -26 45 -3 8
-10 26 -16 40 -5 14 -12 34 -14 45 -2 11 -8 42 -13 68 -9 48 -7 172 4 215 3
12 7 32 10 44 21 95 88 249 168 383 79 134 240 360 306 430 10 11 40 45 66 75
117 136 311 323 446 431 35 28 66 55 69 58 3 4 28 23 55 42 28 18 52 37 55 40
12 13 240 159 290 185 30 16 57 32 58 37 2 4 12 7 23 7 10 0 19 3 19 8 0 4 26
17 58 29 31 12 71 28 87 34 17 7 32 13 35 14 23 7 86 25 92 26 4 0 29 7 55 14
27 6 51 11 54 9 4 -2 5 -36 3 -76z"/>
</g>
</svg>
